# 3ds Max Wavefront OBJ Exporter v0.97b - (c)2007 guruware
# File Created: 12.04.2020 20:31:59

mtllib Katana.mtl

#
# object Ninjato
#

v  -84.9152 -81.0384 47.8514
v  -84.9152 -81.5243 57.1133
v  -84.8179 -81.5243 57.1133
v  -84.8179 -81.0384 47.8514
v  -84.9152 -83.0353 47.7993
v  -84.8179 -83.0353 47.7993
v  -84.8179 -83.6017 56.9959
v  -84.9152 -83.6017 56.9959
v  -84.8179 -81.4467 47.4591
v  -84.9152 -81.4467 47.4591
v  -83.9882 -81.0384 47.8514
v  -83.9882 -81.5243 57.1133
v  -83.9882 -81.9377 57.0928
v  -83.9882 -81.4467 47.4591
v  -83.9882 -81.6749 64.2911
v  -84.1365 -81.6749 64.2911
v  -84.1365 -81.9150 64.2804
v  -83.9882 -81.9150 64.2804
v  -84.9152 -81.6749 64.2911
v  -84.9152 -81.7035 63.8897
v  -84.9152 -82.1718 63.8653
v  -84.9152 -81.9150 64.2804
v  -83.9882 -82.0662 47.3472
v  -83.9882 -82.6092 47.4178
v  -84.1365 -82.6092 47.4178
v  -84.1365 -82.0662 47.3472
v  -83.9882 -82.9349 64.2359
v  -83.9882 -83.9281 64.2065
v  -83.9882 -83.5590 63.8133
v  -83.9882 -82.9142 63.8347
v  -84.9152 -82.0662 47.3472
v  -84.9152 -82.6092 47.4178
v  -84.9152 -83.1459 57.0248
v  -84.9152 -82.5651 57.0615
v  -84.8179 -81.7035 63.8897
v  -83.9882 -83.6017 56.9959
v  -83.9882 -84.0710 63.8090
v  -84.1365 -84.0710 63.8090
v  -84.1365 -83.6017 56.9959
v  -83.9882 -81.7035 63.8897
v  -83.9882 -82.1718 63.8653
v  -84.9152 -81.9377 57.0928
v  -83.9882 -83.0353 47.7993
v  -83.9882 -83.1459 57.0248
v  -84.9152 -84.0710 63.8090
v  -84.9152 -83.5590 63.8133
v  -84.1365 -83.0353 47.7993
v  -83.9882 -84.1340 64.2126
v  -84.9152 -83.9281 64.2065
v  -84.9152 -84.1340 64.2126
v  -84.8179 -84.1340 64.2126
v  -84.8179 -83.9281 64.2065
v  -83.9882 -82.5651 57.0615
v  -84.9152 -82.9349 64.2359
v  -84.9152 -82.9142 63.8347
v  -84.1365 -81.4467 47.4591
v  -84.8179 -81.9150 64.2804
v  -84.8179 -81.6749 64.2911
v  -84.1365 -84.1340 64.2126
v  -84.6128 -81.5243 57.1133
v  -84.6128 -81.0384 47.8514
v  -84.6128 -83.0353 47.7993
v  -84.6128 -83.6017 56.9959
v  -84.6128 -81.4467 47.4591
v  -84.8179 -82.6092 47.4178
v  -84.8179 -82.0662 47.3472
v  -84.6128 -81.7035 63.8897
v  -84.8179 -84.0710 63.8090
v  -84.6128 -84.1340 64.2126
v  -84.6128 -83.9281 64.2065
v  -84.8179 -83.9929 66.2024
v  -84.5516 -83.9929 66.2024
v  -84.6128 -81.9607 66.2737
v  -84.8179 -81.9607 66.2737
v  -84.6128 -81.6749 64.2911
v  -84.4372 -81.6749 64.2911
v  -84.4372 -81.9150 64.2804
v  -84.4372 -82.6092 47.4178
v  -84.4372 -82.0662 47.3472
v  -84.4372 -84.0711 63.8090
v  -84.4372 -83.6017 56.9959
v  -84.4372 -83.0353 47.7993
v  -84.4372 -81.4467 47.4591
v  -84.4372 -84.1340 64.2126
v  -84.1365 -81.5243 57.1133
v  -84.1365 -81.0384 47.8514
v  -84.1365 -81.7035 63.8897
v  -84.1365 -83.9281 64.2065
v  -84.4372 -81.9607 66.2737
v  -84.1365 -81.9607 66.2737
v  -84.1365 -83.9929 66.2024
v  -84.4372 -81.5243 57.1133
v  -84.4372 -81.0384 47.8514
v  -84.4372 -81.7035 63.8897
v  -84.4372 -83.9281 64.2065
v  -84.5394 -80.6508 106.2505
v  -84.5256 -80.6508 106.2505
v  -84.5213 -79.5865 107.2218
v  -84.5228 -79.5865 107.2218
v  -84.6128 -81.9150 64.2804
v  -84.6128 -82.6092 47.4178
v  -84.6128 -82.0662 47.3472
v  -84.6128 -84.0711 63.8090
v  -84.5124 -83.9929 66.2024
v  -84.5256 -83.8092 80.7853
v  -84.5394 -83.8092 80.7853
v  -84.4372 -81.9629 80.7327
v  -84.6128 -81.9629 80.7327
v  -84.5256 -81.5037 104.4531
v  -84.5256 -81.0410 105.5624
v  -84.5394 -81.0410 105.5624
v  -84.5394 -81.5037 104.4531
v  -84.4372 -79.8618 105.3328
v  -84.4372 -79.7374 106.5654
v  -84.6128 -79.8618 105.3328
v  -84.6128 -79.7374 106.5654
v  -84.5256 -82.1695 99.9169
v  -84.5394 -82.1695 99.9169
v  -84.4372 -80.5146 100.3328
v  -84.6128 -80.5146 100.3328
v  -84.5256 -82.8683 93.8839
v  -84.5394 -82.8683 93.8839
v  -84.4372 -81.1147 94.2256
v  -84.6128 -81.1147 94.2256
# 124 vertices

vn -0.6244 0.7264 -0.2872
vn -0.7100 0.7036 0.0278
vn 0.0000 0.9992 0.0394
vn -0.0000 0.9300 -0.3677
vn -0.6308 -0.6983 -0.3382
vn 0.0000 -0.9000 -0.4359
vn 0.0000 -0.9979 -0.0651
vn -0.7079 -0.7048 -0.0460
vn 0.0000 0.4547 -0.8906
vn -0.6474 0.3465 -0.6788
vn 0.6244 0.7264 -0.2872
vn 0.7100 0.7036 0.0278
vn 1.0000 0.0000 0.0000
vn 0.6474 0.3465 -0.6788
vn 0.5716 0.5879 0.5724
vn 0.0000 0.7165 0.6976
vn 0.3055 0.2647 0.9146
vn 0.7072 -0.0311 0.7063
vn -0.5716 0.5879 0.5724
vn -0.7182 0.6956 -0.0155
vn -1.0000 0.0000 0.0000
vn -0.7072 -0.0311 0.7063
vn 0.6742 0.0183 -0.7383
vn 0.6462 -0.3179 -0.6938
vn 0.0000 -0.4166 -0.9091
vn 0.0000 0.0247 -0.9997
vn 0.7138 -0.0001 0.7003
vn -0.6742 0.0183 -0.7383
vn -0.6462 -0.3179 -0.6938
vn 0.0000 0.9998 -0.0222
vn 0.7079 -0.7048 -0.0460
vn 0.7169 -0.6928 -0.0777
vn 0.0000 -0.9938 -0.1115
vn -0.0000 -0.9979 -0.0651
vn 0.7182 0.6956 -0.0155
vn 0.6308 -0.6983 -0.3382
vn -0.7169 -0.6928 -0.0777
vn 0.5683 -0.6171 0.5443
vn -0.7138 -0.0001 0.7003
vn -0.5683 -0.6171 0.5443
vn 0.0000 -0.7499 0.6615
vn -0.3042 -0.2981 0.9048
vn -0.3055 0.2647 0.9146
vn 0.0000 0.9300 -0.3677
vn -0.0000 -0.9938 -0.1115
vn 0.0000 -0.7082 0.7060
vn -0.5775 -0.5965 0.5574
vn -0.2899 -0.9158 0.2779
vn -0.3113 0.8933 0.3243
vn -0.5768 0.5606 0.5942
vn 0.0000 0.6829 0.7305
vn -0.0000 0.9998 -0.0222
vn 0.3042 -0.2981 0.9048
vn 0.3117 0.8925 0.3261
vn 0.5768 0.5606 0.5942
vn 0.5775 -0.5965 0.5574
vn -0.6870 -0.5658 0.4560
vn 0.6699 -0.5809 0.4624
vn 0.5117 0.4276 0.7452
vn -0.5058 0.4296 0.7480
vn 0.2894 -0.9165 0.2762
vn 0.6835 -0.7293 0.0311
vn -0.6864 -0.7266 0.0309
vn 0.7311 0.6819 -0.0214
vn -0.7283 0.6849 -0.0214
vn 0.6588 -0.7256 0.1989
vn 0.6542 -0.6805 0.3301
vn -0.6609 -0.6750 0.3279
vn -0.6624 -0.7224 0.1984
vn 0.7238 0.6854 -0.0796
vn 0.7919 0.6105 -0.0165
vn -0.7205 0.6889 -0.0799
vn -0.7902 0.6127 -0.0116
vn 0.6839 -0.7234 0.0948
vn -0.6873 -0.7202 0.0944
vn 0.7301 0.6789 -0.0775
vn -0.7269 0.6823 -0.0779
vn 0.6840 -0.7264 0.0680
vn -0.6871 -0.7234 0.0677
vn 0.7291 0.6822 -0.0548
vn -0.7261 0.6853 -0.0551
# 81 vertex normals

vt 0.0431 0.4374 0.0000
vt 0.1468 0.6504 0.0000
vt 0.1435 0.6520 0.0000
vt 0.0394 0.4392 0.0000
vt 0.5040 0.0200 0.0000
vt 0.5077 0.0218 0.0000
vt 0.4041 0.2335 0.0000
vt 0.4009 0.2319 0.0000
vt 0.4376 0.2568 0.0000
vt 0.4402 0.2568 0.0000
vt 0.4402 0.2718 0.0000
vt 0.4376 0.2718 0.0000
vt 0.5351 0.3918 0.0000
vt 0.4431 0.6201 0.0000
vt 0.4329 0.6160 0.0000
vt 0.5282 0.3784 0.0000
vt 0.3256 0.0200 0.0000
vt 0.3446 0.0455 0.0000
vt 0.3277 0.0769 0.0000
vt 0.3131 0.0687 0.0000
vt 0.0200 0.3893 0.0000
vt 0.0267 0.3810 0.0000
vt 0.0373 0.3876 0.0000
vt 0.0254 0.3927 0.0000
vt 0.4622 0.2885 0.0000
vt 0.4622 0.3030 0.0000
vt 0.4582 0.3030 0.0000
vt 0.4582 0.2885 0.0000
vt 0.3463 0.7867 0.0000
vt 0.3216 0.7774 0.0000
vt 0.3342 0.7707 0.0000
vt 0.3502 0.7768 0.0000
vt 0.2865 0.0270 0.0000
vt 0.2973 0.0368 0.0000
vt 0.1626 0.2538 0.0000
vt 0.1494 0.2457 0.0000
vt 0.2292 0.8186 0.0000
vt 0.2265 0.8200 0.0000
vt 0.4240 0.2432 0.0000
vt 0.3419 0.4126 0.0000
vt 0.3381 0.4109 0.0000
vt 0.4203 0.2415 0.0000
vt 0.3802 0.7886 0.0000
vt 0.3686 0.7840 0.0000
vt 0.1260 0.2310 0.0000
vt 0.2565 0.0223 0.0000
vt 0.2714 0.0200 0.0000
vt 0.1353 0.2369 0.0000
vt 0.3919 0.5992 0.0000
vt 0.4854 0.3733 0.0000
vt 0.4994 0.3674 0.0000
vt 0.4031 0.6039 0.0000
vt 0.1730 0.2601 0.0000
vt 0.0794 0.4153 0.0000
vt 0.0682 0.4076 0.0000
vt 0.4622 0.3182 0.0000
vt 0.4582 0.3182 0.0000
vt 0.3164 0.7758 0.0000
vt 0.3214 0.7662 0.0000
vt 0.3742 0.1396 0.0000
vt 0.3786 0.1497 0.0000
vt 0.3748 0.1521 0.0000
vt 0.3699 0.1398 0.0000
vt 0.3007 0.0516 0.0000
vt 0.5136 0.3703 0.0000
vt 0.4174 0.6098 0.0000
vt 0.0702 0.4218 0.0000
vt 0.0482 0.4073 0.0000
vt 0.0539 0.3983 0.0000
vt 0.4622 0.2718 0.0000
vt 0.4582 0.2718 0.0000
vt 0.3734 0.0948 0.0000
vt 0.3728 0.1161 0.0000
vt 0.3696 0.0940 0.0000
vt 0.3715 0.7966 0.0000
vt 0.2343 0.8293 0.0000
vt 0.2317 0.8305 0.0000
vt 0.3371 0.4230 0.0000
vt 0.3333 0.4213 0.0000
vt 0.3774 0.7989 0.0000
vt 0.0746 0.4250 0.0000
vt 0.1387 0.6544 0.0000
vt 0.0347 0.4415 0.0000
vt 0.5124 0.0241 0.0000
vt 0.4090 0.2359 0.0000
vt 0.4456 0.2568 0.0000
vt 0.4456 0.2718 0.0000
vt 0.3776 0.0822 0.0000
vt 0.3806 0.0850 0.0000
vt 0.4402 0.3030 0.0000
vt 0.4376 0.3030 0.0000
vt 0.4376 0.2885 0.0000
vt 0.4402 0.2885 0.0000
vt 0.2213 0.8226 0.0000
vt 0.3210 0.4024 0.0000
vt 0.3182 0.4011 0.0000
vt 0.4402 0.3182 0.0000
vt 0.4376 0.3182 0.0000
vt 0.3664 0.1581 0.0000
vt 0.3597 0.1480 0.0000
vt 0.3529 0.1290 0.0000
vt 0.3540 0.1302 0.0000
vt 0.3540 0.1130 0.0000
vt 0.3528 0.1142 0.0000
vt 0.2263 0.8330 0.0000
vt 0.3157 0.4132 0.0000
vt 0.3131 0.4120 0.0000
vt 0.3611 0.0647 0.0000
vt 0.3503 0.0799 0.0000
vt 0.4503 0.3030 0.0000
vt 0.4503 0.2885 0.0000
vt 0.3306 0.4072 0.0000
vt 0.4132 0.2380 0.0000
vt 0.4503 0.3182 0.0000
vt 0.4503 0.2718 0.0000
vt 0.3256 0.4177 0.0000
vt 0.1273 0.6599 0.0000
vt 0.1236 0.6617 0.0000
vt 0.0200 0.4486 0.0000
vt 0.0237 0.4468 0.0000
vt 0.5234 0.0294 0.0000
vt 0.5271 0.0312 0.0000
vt 0.4582 0.2568 0.0000
vt 0.4622 0.2568 0.0000
vt 0.2093 0.8284 0.0000
vt 0.2056 0.8302 0.0000
vt 0.3394 0.1798 0.0000
vt 0.3256 0.2006 0.0000
vt 0.3160 0.1662 0.0000
vt 0.3292 0.1558 0.0000
vt 0.3160 0.1106 0.0000
vt 0.2142 0.8387 0.0000
vt 0.2104 0.8404 0.0000
vt 0.3590 0.1117 0.0000
vt 0.3591 0.1114 0.0000
vt 0.3598 0.1317 0.0000
vt 0.1345 0.6564 0.0000
vt 0.0306 0.4435 0.0000
vt 0.5165 0.0261 0.0000
vt 0.4503 0.2568 0.0000
vt 0.2169 0.8248 0.0000
vt 0.3577 0.1656 0.0000
vt 0.3501 0.1535 0.0000
vt 0.8436 0.0265 0.0000
vt 0.8436 0.0264 0.0000
vt 0.2218 0.8351 0.0000
vt 0.3696 0.0739 0.0000
vt 0.3602 0.0862 0.0000
vt 0.4456 0.3030 0.0000
vt 0.4456 0.2885 0.0000
vt 0.3261 0.4051 0.0000
vt 0.4456 0.3182 0.0000
vt 0.3211 0.4156 0.0000
vt 0.3600 0.1315 0.0000
vt 0.5576 0.9864 0.0000
vt 0.7359 0.9737 0.0000
vt 0.8448 0.1774 0.0000
vt 0.8146 0.1662 0.0000
vt 0.8044 0.9653 0.0000
vt 0.8159 0.1756 0.0000
vt 0.9823 0.9864 0.0000
vt 0.8462 0.1700 0.0000
vt 0.8437 0.0267 0.0000
vt 0.8435 0.0267 0.0000
vt 0.8437 0.0265 0.0000
vt 0.8439 0.0284 0.0000
vt 0.8430 0.0284 0.0000
vt 0.8432 0.0278 0.0000
vt 0.8438 0.0279 0.0000
vt 0.8451 0.0408 0.0000
vt 0.8402 0.0402 0.0000
vt 0.8400 0.0375 0.0000
vt 0.8451 0.0379 0.0000
# 173 texture coords

o Ninjato
g Ninjato
usemtl wire_061135006
f 1/1/1 2/2/2 3/3/3 4/4/4 
f 5/5/5 6/6/6 7/7/7 8/8/8 
f 1/9/1 4/10/4 9/11/9 10/12/10 
f 11/13/11 12/14/12 13/15/13 14/16/14 
f 15/17/15 16/18/16 17/19/17 18/20/18 
f 19/21/19 20/22/20 21/23/21 22/24/22 
f 23/25/23 24/26/24 25/27/25 26/28/26 
f 27/29/13 28/30/27 29/31/13 30/32/13 
f 31/33/28 32/34/29 33/35/21 34/36/21 
f 2/2/2 20/37/20 35/38/30 3/3/3 
f 36/39/31 37/40/32 38/41/33 39/42/34 
f 12/14/12 40/43/35 41/44/13 13/15/13 
f 2/45/2 1/46/1 10/47/10 42/48/21 
f 36/49/31 43/50/36 24/51/24 44/52/13 
f 8/53/8 45/54/37 46/55/21 33/35/21 
f 24/26/24 43/56/36 47/57/6 25/27/25 
f 28/30/27 48/58/38 37/59/32 29/31/13 
f 49/60/39 50/61/40 51/62/41 52/63/42 
f 32/34/29 5/64/5 8/53/8 33/35/21 
f 24/51/24 23/65/23 53/66/13 44/52/13 
f 49/67/39 54/68/21 55/69/21 46/55/21 
f 14/70/14 23/25/23 26/28/26 56/71/9 
f 13/15/13 53/66/13 23/65/23 14/16/14 
f 22/72/22 54/73/21 49/60/39 52/63/42 57/74/43 
f 42/48/21 34/36/21 55/69/21 21/23/21 
f 18/75/18 27/29/13 30/32/13 41/44/13 
f 10/47/10 31/33/28 34/36/21 42/48/21 
f 20/22/20 2/45/2 42/48/21 21/23/21 
f 29/31/13 44/52/13 53/66/13 30/32/13 
f 20/37/20 19/76/19 58/77/16 35/38/30 
f 37/40/32 48/78/38 59/79/41 38/41/33 
f 40/43/35 15/80/15 18/75/18 41/44/13 
f 45/54/37 50/81/40 49/67/39 46/55/21 
f 37/59/32 36/49/31 44/52/13 29/31/13 
f 55/69/21 34/36/21 33/35/21 46/55/21 
f 55/69/21 54/68/21 22/24/22 21/23/21 
f 30/32/13 53/66/13 13/15/13 41/44/13 
f 3/3/3 60/82/3 61/83/44 4/4/4 
f 6/6/6 62/84/6 63/85/7 7/7/7 
f 4/10/4 61/86/44 64/87/9 9/11/9 
f 58/88/16 19/89/19 22/72/22 57/74/43 
f 65/90/25 32/91/29 31/92/28 66/93/26 
f 35/38/30 67/94/30 60/82/3 3/3/3 
f 68/95/45 45/96/37 8/8/8 7/7/7 
f 6/97/6 5/98/5 32/91/29 65/90/25 
f 51/62/41 69/99/41 70/100/46 52/63/42 
f 66/93/26 31/92/28 10/12/10 9/11/9 
f 71/101/47 72/102/48 73/103/49 74/104/50 
f 58/77/16 75/105/16 67/94/30 35/38/30 
f 51/106/41 50/107/40 45/96/37 68/95/45 
f 16/18/16 76/108/16 77/109/51 17/19/17 
f 25/27/25 78/110/25 79/111/26 26/28/26 
f 38/41/33 80/112/33 81/113/7 39/42/34 
f 47/57/6 82/114/6 78/110/25 25/27/25 
f 26/28/26 79/111/26 83/115/9 56/71/9 
f 59/79/41 84/116/41 80/112/33 38/41/33 
f 85/117/3 12/118/12 11/119/11 86/120/44 
f 47/121/6 43/122/36 36/39/31 39/42/34 
f 86/123/44 11/124/11 14/70/14 56/71/9 
f 87/125/52 40/126/35 12/118/12 85/117/3 
f 59/127/41 48/128/38 28/129/27 88/130/53 
f 88/130/53 28/129/27 27/131/13 18/20/18 17/19/17 
f 16/132/16 15/133/15 40/126/35 87/125/52 
f 17/19/17 77/109/51 89/134/54 90/135/55 
f 57/74/43 52/63/42 71/101/47 74/104/50 
f 52/63/42 70/100/46 72/102/48 71/101/47 
f 88/130/53 17/19/17 90/135/55 91/136/56 
f 60/82/3 92/137/3 93/138/44 61/83/44 
f 62/84/6 82/139/6 81/113/7 63/85/7 
f 61/86/44 93/140/44 83/115/9 64/87/9 
f 67/94/30 94/141/52 92/137/3 60/82/3 
f 69/99/41 84/142/41 95/143/46 70/100/46 
f 96/144/57 97/144/58 98/145/59 99/145/60 
f 75/105/16 76/146/16 94/141/52 67/94/30 
f 75/147/16 58/88/16 57/74/43 100/148/51 
f 101/149/25 65/90/25 66/93/26 102/150/26 
f 103/151/45 68/95/45 7/7/7 63/85/7 
f 62/152/6 6/97/6 65/90/25 101/149/25 
f 102/150/26 66/93/26 9/11/9 64/87/9 
f 69/153/41 51/106/41 68/95/45 103/151/45 
f 100/148/51 57/74/43 74/104/50 73/103/49 
f 70/100/46 95/143/46 104/154/61 72/102/48 
f 76/108/16 75/147/16 100/148/51 77/109/51 
f 78/110/25 101/149/25 102/150/26 79/111/26 
f 80/112/33 103/151/45 63/85/7 81/113/7 
f 82/114/6 62/152/6 101/149/25 78/110/25 
f 79/111/26 102/150/26 64/87/9 83/115/9 
f 84/116/41 69/153/41 103/151/45 80/112/33 
f 77/109/51 100/148/51 73/103/49 89/134/54 
f 92/137/3 85/117/3 86/120/44 93/138/44 
f 82/139/6 47/121/6 39/42/34 81/113/7 
f 93/140/44 86/123/44 56/71/9 83/115/9 
f 94/141/52 87/125/52 85/117/3 92/137/3 
f 84/142/41 59/127/41 88/130/53 95/143/46 
f 104/154/61 91/136/56 90/135/55 89/134/54 
f 76/146/16 16/132/16 87/125/52 94/141/52 
f 95/143/46 88/130/53 91/136/56 104/154/61 
f 72/155/48 104/156/61 105/157/62 106/158/63 
f 104/156/61 89/159/54 107/160/64 105/157/62 
f 89/159/54 73/161/49 108/162/65 107/160/64 
f 73/161/49 72/155/48 106/158/63 108/162/65 
f 109/163/66 110/144/67 111/144/68 112/164/69 
f 113/144/70 114/145/71 110/144/67 109/163/66 
f 115/165/72 116/145/73 114/145/71 113/144/70 
f 112/164/69 111/144/68 116/145/73 115/165/72 
f 117/166/74 109/163/66 112/164/69 118/167/75 
f 119/168/76 113/144/70 109/163/66 117/166/74 
f 120/169/77 115/165/72 113/144/70 119/168/76 
f 118/167/75 112/164/69 115/165/72 120/169/77 
f 121/170/78 117/166/74 118/167/75 122/171/79 
f 123/172/80 119/168/76 117/166/74 121/170/78 
f 124/173/81 120/169/77 119/168/76 123/172/80 
f 122/171/79 118/167/75 120/169/77 124/173/81 
f 105/157/62 121/170/78 122/171/79 106/158/63 
f 107/160/64 123/172/80 121/170/78 105/157/62 
f 108/162/65 124/173/81 123/172/80 107/160/64 
f 106/158/63 122/171/79 124/173/81 108/162/65 
f 110/144/67 97/144/58 96/144/57 111/144/68 
f 114/145/71 98/145/59 97/144/58 110/144/67 
f 116/145/73 99/145/60 98/145/59 114/145/71 
f 111/144/68 96/144/57 99/145/60 116/145/73 
# 121 polygons

