# 3ds Max Wavefront OBJ Exporter v0.97b - (c)2007 guruware
# File Created: 12.04.2020 20:39:44

mtllib Kunai.mtl

#
# object Torus002
#

v  -61.0726 -122.4538 50.3245
v  -61.0710 -122.4538 50.3245
v  -61.0710 -122.4528 50.3245
v  -61.0710 -122.4519 50.3245
v  -61.0726 -122.4519 50.3245
v  -61.0741 -122.4519 50.3245
v  -61.0741 -122.4528 50.3245
v  -61.0741 -122.4538 50.3245
v  -61.0777 -122.5048 48.1715
v  -61.0777 -122.5048 48.1115
v  -61.0080 -122.5048 48.0929
v  -60.9925 -122.5048 48.1487
v  -61.0777 -122.4528 48.0815
v  -61.0157 -122.4528 48.0649
v  -61.0777 -122.4009 48.1115
v  -61.0080 -122.4009 48.0929
v  -61.0777 -122.4009 48.1715
v  -60.9925 -122.4009 48.1487
v  -60.8977 -122.4528 48.1533
v  -60.9127 -122.5048 48.1273
v  -60.7919 -122.5048 48.0065
v  -60.7659 -122.4528 48.0215
v  -60.9427 -122.5048 48.0754
v  -60.8438 -122.5048 47.9765
v  -60.9577 -122.4528 48.0494
v  -60.8698 -122.4528 47.9615
v  -60.9427 -122.4009 48.0754
v  -60.8438 -122.4009 47.9765
v  -60.9127 -122.4009 48.1273
v  -60.7919 -122.4009 48.0065
v  -60.7477 -122.5048 47.8415
v  -60.7177 -122.4528 47.8415
v  -60.8077 -122.5048 47.8415
v  -60.8377 -122.4528 47.8415
v  -60.8077 -122.4009 47.8415
v  -60.7477 -122.4009 47.8415
v  -60.7919 -122.5048 47.6765
v  -60.7659 -122.4528 47.6615
v  -60.8438 -122.5048 47.7065
v  -60.8698 -122.4528 47.7215
v  -60.8438 -122.4009 47.7065
v  -60.7919 -122.4009 47.6765
v  -60.9127 -122.5048 47.5557
v  -60.8977 -122.4528 47.5298
v  -60.9427 -122.5048 47.6077
v  -60.9577 -122.4528 47.6337
v  -60.9427 -122.4009 47.6077
v  -60.9127 -122.4009 47.5557
v  -61.0777 -122.5048 47.5115
v  -61.0777 -122.4528 47.4815
v  -61.0777 -122.5048 47.5715
v  -61.0777 -122.4528 47.6015
v  -61.0777 -122.4009 47.5715
v  -61.0777 -122.4009 47.5115
v  -61.2427 -122.5048 47.5557
v  -61.2577 -122.4528 47.5298
v  -61.2127 -122.5048 47.6077
v  -61.1977 -122.4528 47.6337
v  -61.2127 -122.4009 47.6077
v  -61.2427 -122.4009 47.5557
v  -61.3634 -122.5048 47.6765
v  -61.3894 -122.4528 47.6615
v  -61.3115 -122.5048 47.7065
v  -61.2855 -122.4528 47.7215
v  -61.3115 -122.4009 47.7065
v  -61.3634 -122.4009 47.6765
v  -61.4077 -122.5048 47.8415
v  -61.4377 -122.4528 47.8415
v  -61.3477 -122.5048 47.8415
v  -61.3177 -122.4528 47.8415
v  -61.3477 -122.4009 47.8415
v  -61.4077 -122.4009 47.8415
v  -61.3634 -122.5048 48.0065
v  -61.3894 -122.4528 48.0215
v  -61.3115 -122.5048 47.9765
v  -61.2855 -122.4528 47.9615
v  -61.3115 -122.4009 47.9765
v  -61.3634 -122.4009 48.0065
v  -61.2427 -122.5048 48.1273
v  -61.2577 -122.4528 48.1533
v  -61.2127 -122.5048 48.0754
v  -61.1977 -122.4528 48.0494
v  -61.2127 -122.4009 48.0754
v  -61.2427 -122.4009 48.1273
v  -61.1581 -122.5048 48.1500
v  -61.1654 -122.4528 48.1780
v  -61.1435 -122.5048 48.0939
v  -61.1362 -122.4528 48.0659
v  -61.1435 -122.4009 48.0939
v  -61.1581 -122.4009 48.1500
v  -60.9848 -122.4528 48.1766
v  -60.9889 -122.5048 48.9551
v  -61.0741 -122.5048 48.9550
v  -60.9889 -122.4528 48.9551
v  -60.9889 -122.4009 48.9551
v  -61.0741 -122.4009 48.9550
v  -61.1545 -122.4009 48.9550
v  -61.1545 -122.4528 48.9550
v  -61.1545 -122.5048 48.9550
v  -60.8159 -122.4881 49.5049
v  -61.0736 -122.5880 49.5049
v  -60.8158 -122.4528 49.5049
v  -60.8159 -122.4176 49.5049
v  -61.0736 -122.3176 49.5049
v  -61.3281 -122.4176 49.5049
v  -61.3280 -122.4528 49.5049
v  -61.3281 -122.4881 49.5049
# 107 vertices

vn -0.0000 -0.9967 0.0811
vn 0.4766 -0.5806 0.6601
vn 0.5022 -0.0000 0.8648
vn 0.4766 0.5806 0.6601
vn -0.0000 0.9967 0.0811
vn -0.4780 0.5801 0.6595
vn -0.6809 0.0000 -0.7324
vn -0.4780 -0.5801 0.6595
vn 0.0000 -1.0000 -0.0000
vn 0.0000 -0.9016 -0.4325
vn -0.1311 -0.8623 -0.4892
vn 0.2492 -0.9406 0.2305
vn 0.0000 0.0000 -1.0000
vn -0.2588 -0.0000 -0.9659
vn 0.0000 0.9016 -0.4325
vn -0.1311 0.8623 -0.4892
vn -0.0000 1.0000 0.0000
vn 0.2492 0.9406 0.2305
vn 0.5000 -0.0000 0.8660
vn 0.2787 -0.8303 0.4827
vn 0.4827 -0.8303 0.2787
vn 0.8660 -0.0000 0.5000
vn -0.2162 -0.9016 -0.3745
vn -0.3745 -0.9016 -0.2162
vn -0.5000 0.0000 -0.8660
vn -0.8660 0.0000 -0.5000
vn -0.2162 0.9016 -0.3745
vn -0.3745 0.9016 -0.2162
vn 0.2787 0.8303 0.4827
vn 0.4827 0.8303 0.2787
vn 0.5573 -0.8303 -0.0000
vn 1.0000 0.0000 0.0000
vn -0.4325 -0.9016 -0.0000
vn -1.0000 0.0000 0.0000
vn -0.4325 0.9016 0.0000
vn 0.5573 0.8303 0.0000
vn 0.4827 -0.8303 -0.2787
vn 0.8660 0.0000 -0.5000
vn -0.3745 -0.9016 0.2162
vn -0.8660 -0.0000 0.5000
vn -0.3745 0.9016 0.2162
vn 0.4827 0.8303 -0.2787
vn 0.2787 -0.8303 -0.4827
vn 0.5000 0.0000 -0.8660
vn -0.2162 -0.9016 0.3745
vn -0.5000 -0.0000 0.8660
vn -0.2162 0.9016 0.3745
vn 0.2787 0.8303 -0.4827
vn -0.0000 -0.8303 -0.5573
vn -0.0000 0.0000 -1.0000
vn 0.0000 -0.9016 0.4325
vn 0.0000 -0.0000 1.0000
vn 0.0000 0.9016 0.4325
vn -0.0000 0.8303 -0.5573
vn -0.2787 -0.8303 -0.4827
vn 0.2162 -0.9016 0.3745
vn 0.2162 0.9016 0.3745
vn -0.2787 0.8303 -0.4827
vn -0.4827 -0.8303 -0.2787
vn 0.3745 -0.9016 0.2162
vn 0.8660 0.0000 0.5000
vn 0.3745 0.9016 0.2162
vn -0.4827 0.8303 -0.2787
vn -0.5573 -0.8303 -0.0000
vn -1.0000 0.0000 -0.0000
vn 0.4325 -0.9016 -0.0000
vn 1.0000 -0.0000 0.0000
vn 0.4325 0.9016 0.0000
vn -0.5573 0.8303 0.0000
vn -0.4827 -0.8303 0.2787
vn 0.3745 -0.9016 -0.2162
vn 0.3745 0.9016 -0.2162
vn -0.4827 0.8303 0.2787
vn -0.2787 -0.8303 0.4827
vn 0.2162 -0.9016 -0.3745
vn 0.2162 0.9016 -0.3745
vn -0.2787 0.8303 0.4827
vn -0.2497 -0.9398 0.2334
vn -0.8707 -0.0000 0.4919
vn 0.1311 -0.8623 -0.4892
vn 0.2588 -0.0000 -0.9659
vn 0.1311 0.8623 -0.4892
vn -0.2497 0.9398 0.2334
vn 0.8725 -0.0000 0.4887
vn 0.6592 -0.7466 -0.0894
vn 0.0000 -0.9972 -0.0750
vn 0.9888 0.0000 -0.1493
vn 0.6592 0.7466 -0.0894
vn 0.0000 0.9972 -0.0751
vn -0.6592 0.7470 -0.0867
vn -0.9894 0.0000 -0.1453
vn -0.6592 -0.7470 -0.0867
vn 0.8532 -0.5214 0.0135
vn -0.0022 -1.0000 0.0059
vn 1.0000 0.0000 -0.0015
vn 0.8533 0.5213 0.0135
vn -0.0022 1.0000 0.0058
vn -0.8548 0.5187 0.0124
vn -1.0000 0.0000 -0.0026
vn -0.8548 -0.5189 0.0125
# 100 vertex normals

vt 0.5129 0.4078 0.0000
vt 0.5203 0.3926 0.0000
vt 0.5283 0.3954 0.0000
vt 0.5367 0.3980 0.0000
vt 0.5312 0.4119 0.0000
vt 0.5264 0.4244 0.0000
vt 0.5170 0.4245 0.0000
vt 0.5063 0.4245 0.0000
vt 0.0745 0.0200 0.0000
vt 0.0969 0.0304 0.0000
vt 0.0926 0.0609 0.0000
vt 0.0682 0.0558 0.0000
vt 0.1201 0.0362 0.0000
vt 0.1195 0.0633 0.0000
vt 0.1432 0.0321 0.0000
vt 0.1458 0.0620 0.0000
vt 0.1653 0.0235 0.0000
vt 0.1692 0.0581 0.0000
vt 0.0307 0.0840 0.0000
vt 0.0569 0.0893 0.0000
vt 0.0503 0.1704 0.0000
vt 0.0219 0.1687 0.0000
vt 0.0865 0.0935 0.0000
vt 0.0819 0.1707 0.0000
vt 0.1194 0.0956 0.0000
vt 0.1173 0.1703 0.0000
vt 0.1510 0.0936 0.0000
vt 0.1521 0.1686 0.0000
vt 0.1779 0.0900 0.0000
vt 0.1824 0.1663 0.0000
vt 0.2030 0.0862 0.0000
vt 0.2095 0.1649 0.0000
vt 0.0486 0.2535 0.0000
vt 0.0200 0.2532 0.0000
vt 0.0807 0.2523 0.0000
vt 0.1169 0.2509 0.0000
vt 0.1529 0.2491 0.0000
vt 0.1844 0.2472 0.0000
vt 0.2123 0.2464 0.0000
vt 0.0488 0.3370 0.0000
vt 0.0203 0.3372 0.0000
vt 0.0811 0.3353 0.0000
vt 0.1175 0.3335 0.0000
vt 0.1538 0.3316 0.0000
vt 0.1858 0.3296 0.0000
vt 0.2141 0.3291 0.0000
vt 0.0498 0.4205 0.0000
vt 0.0213 0.4209 0.0000
vt 0.0820 0.4186 0.0000
vt 0.1185 0.4166 0.0000
vt 0.1550 0.4147 0.0000
vt 0.1872 0.4127 0.0000
vt 0.2155 0.4122 0.0000
vt 0.0510 0.5039 0.0000
vt 0.0225 0.5044 0.0000
vt 0.0832 0.5020 0.0000
vt 0.1197 0.5000 0.0000
vt 0.1562 0.4980 0.0000
vt 0.1885 0.4961 0.0000
vt 0.2169 0.4956 0.0000
vt 0.0523 0.5873 0.0000
vt 0.0239 0.5878 0.0000
vt 0.0845 0.5853 0.0000
vt 0.1209 0.5833 0.0000
vt 0.1574 0.5814 0.0000
vt 0.1897 0.5795 0.0000
vt 0.2181 0.5791 0.0000
vt 0.0536 0.6704 0.0000
vt 0.0254 0.6709 0.0000
vt 0.0856 0.6684 0.0000
vt 0.1219 0.6665 0.0000
vt 0.1584 0.6647 0.0000
vt 0.1906 0.6630 0.0000
vt 0.2192 0.6627 0.0000
vt 0.0551 0.7528 0.0000
vt 0.0272 0.7536 0.0000
vt 0.0866 0.7509 0.0000
vt 0.1226 0.7491 0.0000
vt 0.1588 0.7476 0.0000
vt 0.1909 0.7465 0.0000
vt 0.2195 0.7467 0.0000
vt 0.0571 0.8337 0.0000
vt 0.0300 0.8351 0.0000
vt 0.0874 0.8314 0.0000
vt 0.1222 0.8297 0.0000
vt 0.1576 0.8293 0.0000
vt 0.1892 0.8296 0.0000
vt 0.2176 0.8312 0.0000
vt 0.0616 0.9101 0.0000
vt 0.0365 0.9139 0.0000
vt 0.0885 0.9065 0.0000
vt 0.1202 0.9044 0.0000
vt 0.1530 0.9065 0.0000
vt 0.1826 0.9107 0.0000
vt 0.2089 0.9160 0.0000
vt 0.0708 0.9440 0.0000
vt 0.0472 0.9509 0.0000
vt 0.0940 0.9399 0.0000
vt 0.1201 0.9384 0.0000
vt 0.1467 0.9409 0.0000
vt 0.1710 0.9464 0.0000
vt 0.1957 0.9548 0.0000
vt 0.0965 0.9680 0.0000
vt 0.0745 0.9766 0.0000
vt 0.1195 0.9639 0.0000
vt 0.1427 0.9696 0.0000
vt 0.1650 0.9800 0.0000
vt 0.0435 0.0474 0.0000
vt 0.1926 0.0513 0.0000
vt 0.9779 0.9746 0.0000
vt 0.9133 0.9932 0.0000
vt 0.8993 0.3785 0.0000
vt 0.9642 0.3774 0.0000
vt 0.8728 0.9728 0.0000
vt 0.8596 0.3794 0.0000
vt 0.9821 0.9702 0.0000
vt 0.9416 0.9906 0.0000
vt 0.9557 0.3759 0.0000
vt 0.9953 0.3768 0.0000
vt 0.8770 0.9720 0.0000
vt 0.8908 0.3748 0.0000
vt 0.8299 0.3848 0.0000
vt 0.8892 0.3621 0.0000
vt 0.9502 0.9729 0.0000
vt 0.8892 0.9792 0.0000
vt 0.9311 0.3794 0.0000
vt 0.9896 0.9690 0.0000
vt 0.8928 0.3803 0.0000
vt 0.9331 0.3594 0.0000
vt 0.9256 0.9732 0.0000
vt 0.8859 0.9727 0.0000
vt 0.9941 0.3769 0.0000
vt 0.9869 0.9742 0.0000
vt 0.7774 0.4064 0.0000
vt 0.4788 0.7145 0.0000
vt 0.5153 0.4457 0.0000
vt 0.5867 0.4339 0.0000
vt 0.1086 0.9841 0.0000
vt 0.5196 0.4617 0.0000
vt 0.2236 0.7002 0.0000
vt 0.5259 0.4754 0.0000
vt 0.3424 0.4696 0.0000
vt 0.4779 0.4113 0.0000
vt 0.5172 0.2866 0.0000
vt 0.5148 0.3876 0.0000
vt 0.7368 0.1360 0.0000
vt 0.5182 0.3662 0.0000
vt 0.9816 0.0241 0.0000
vt 0.5204 0.3460 0.0000
# 149 texture coords

o Torus002
g Torus002
usemtl wire_028089177
f 1/1/1 2/2/2 3/3/3 4/4/4 5/5/5 6/6/6 7/7/7 8/8/8 
f 9/9/9 10/10/10 11/11/11 12/12/12 
f 10/10/10 13/13/13 14/14/14 11/11/11 
f 13/13/13 15/15/15 16/16/16 14/14/14 
f 15/15/15 17/17/17 18/18/18 16/16/16 
f 19/19/19 20/20/20 21/21/21 22/22/22 
f 20/20/20 23/23/23 24/24/24 21/21/21 
f 23/23/23 25/25/25 26/26/26 24/24/24 
f 25/25/25 27/27/27 28/28/28 26/26/26 
f 27/27/27 29/29/29 30/30/30 28/28/28 
f 29/29/29 19/31/19 22/32/22 30/30/30 
f 22/22/22 21/21/21 31/33/31 32/34/32 
f 21/21/21 24/24/24 33/35/33 31/33/31 
f 24/24/24 26/26/26 34/36/34 33/35/33 
f 26/26/26 28/28/28 35/37/35 34/36/34 
f 28/28/28 30/30/30 36/38/36 35/37/35 
f 30/30/30 22/32/22 32/39/32 36/38/36 
f 32/34/32 31/33/31 37/40/37 38/41/38 
f 31/33/31 33/35/33 39/42/39 37/40/37 
f 33/35/33 34/36/34 40/43/40 39/42/39 
f 34/36/34 35/37/35 41/44/41 40/43/40 
f 35/37/35 36/38/36 42/45/42 41/44/41 
f 36/38/36 32/39/32 38/46/38 42/45/42 
f 38/41/38 37/40/37 43/47/43 44/48/44 
f 37/40/37 39/42/39 45/49/45 43/47/43 
f 39/42/39 40/43/40 46/50/46 45/49/45 
f 40/43/40 41/44/41 47/51/47 46/50/46 
f 41/44/41 42/45/42 48/52/48 47/51/47 
f 42/45/42 38/46/38 44/53/44 48/52/48 
f 44/48/44 43/47/43 49/54/49 50/55/50 
f 43/47/43 45/49/45 51/56/51 49/54/49 
f 45/49/45 46/50/46 52/57/52 51/56/51 
f 46/50/46 47/51/47 53/58/53 52/57/52 
f 47/51/47 48/52/48 54/59/54 53/58/53 
f 48/52/48 44/53/44 50/60/50 54/59/54 
f 50/55/50 49/54/49 55/61/55 56/62/25 
f 49/54/49 51/56/51 57/63/56 55/61/55 
f 51/56/51 52/57/52 58/64/19 57/63/56 
f 52/57/52 53/58/53 59/65/57 58/64/19 
f 53/58/53 54/59/54 60/66/58 59/65/57 
f 54/59/54 50/60/50 56/67/25 60/66/58 
f 56/62/25 55/61/55 61/68/59 62/69/26 
f 55/61/55 57/63/56 63/70/60 61/68/59 
f 57/63/56 58/64/19 64/71/61 63/70/60 
f 58/64/19 59/65/57 65/72/62 64/71/61 
f 59/65/57 60/66/58 66/73/63 65/72/62 
f 60/66/58 56/67/25 62/74/26 66/73/63 
f 62/69/26 61/68/59 67/75/64 68/76/65 
f 61/68/59 63/70/60 69/77/66 67/75/64 
f 63/70/60 64/71/61 70/78/67 69/77/66 
f 64/71/61 65/72/62 71/79/68 70/78/67 
f 65/72/62 66/73/63 72/80/69 71/79/68 
f 66/73/63 62/74/26 68/81/65 72/80/69 
f 68/76/65 67/75/64 73/82/70 74/83/40 
f 67/75/64 69/77/66 75/84/71 73/82/70 
f 69/77/66 70/78/67 76/85/38 75/84/71 
f 70/78/67 71/79/68 77/86/72 76/85/38 
f 71/79/68 72/80/69 78/87/73 77/86/72 
f 72/80/69 68/81/65 74/88/40 78/87/73 
f 74/83/40 73/82/70 79/89/74 80/90/46 
f 73/82/70 75/84/71 81/91/75 79/89/74 
f 75/84/71 76/85/38 82/92/44 81/91/75 
f 76/85/38 77/86/72 83/93/76 82/92/44 
f 77/86/72 78/87/73 84/94/77 83/93/76 
f 78/87/73 74/88/40 80/95/46 84/94/77 
f 80/90/46 79/89/74 85/96/78 86/97/79 
f 79/89/74 81/91/75 87/98/80 85/96/78 
f 81/91/75 82/92/44 88/99/81 87/98/80 
f 82/92/44 83/93/76 89/100/82 88/99/81 
f 83/93/76 84/94/77 90/101/83 89/100/82 
f 84/94/77 80/95/46 86/102/79 90/101/83 
f 87/98/80 10/103/10 9/104/9 85/96/78 
f 88/99/81 13/105/13 10/103/10 87/98/80 
f 89/100/82 15/106/15 13/105/13 88/99/81 
f 90/101/83 17/107/17 15/106/15 89/100/82 
f 12/12/12 20/20/20 19/19/19 91/108/84 
f 11/11/11 23/23/23 20/20/20 12/12/12 
f 14/14/14 25/25/25 23/23/23 11/11/11 
f 16/16/16 27/27/27 25/25/25 14/14/14 
f 18/18/18 29/29/29 27/27/27 16/16/16 
f 91/109/84 19/31/19 29/29/29 18/18/18 
f 9/110/9 12/111/12 92/112/85 93/113/86 
f 12/111/12 91/114/84 94/115/87 92/112/85 
f 91/116/84 18/117/18 95/118/88 94/119/87 
f 18/117/18 17/120/17 96/121/89 95/118/88 
f 17/122/17 90/123/83 97/124/90 96/125/89 
f 90/123/83 86/126/79 98/127/91 97/124/90 
f 86/128/79 85/129/78 99/130/92 98/131/91 
f 85/129/78 9/132/9 93/133/86 99/130/92 
f 93/134/86 92/135/85 100/136/93 101/137/94 
f 92/135/85 94/138/87 102/139/95 100/136/93 
f 94/138/87 95/140/88 103/141/96 102/139/95 
f 95/140/88 96/142/89 104/143/97 103/141/96 
f 96/142/89 97/144/90 105/145/98 104/143/97 
f 97/144/90 98/146/91 106/147/99 105/145/98 
f 98/146/91 99/148/92 107/149/100 106/147/99 
f 99/148/92 93/134/86 101/137/94 107/149/100 
f 100/136/93 2/2/2 1/1/1 101/137/94 
f 102/139/95 3/3/3 2/2/2 100/136/93 
f 103/141/96 4/4/4 3/3/3 102/139/95 
f 104/143/97 5/5/5 4/4/4 103/141/96 
f 105/145/98 6/6/6 5/5/5 104/143/97 
f 106/147/99 7/7/7 6/6/6 105/145/98 
f 107/149/100 8/8/8 7/7/7 106/147/99 
f 101/137/94 1/1/1 8/8/8 107/149/100 
# 105 polygons

