# 3ds Max Wavefront OBJ Exporter v0.97b - (c)2007 guruware
# File Created: 12.04.2020 20:26:37

mtllib TekagiShuko.mtl

#
# object Tegaki_shuko
#

v  -59.8069 -117.3214 47.4598
v  -59.8069 -117.3214 51.4751
v  -57.7358 -117.3214 51.4751
v  -57.7358 -117.3214 47.4598
v  -59.8069 -117.4787 47.4598
v  -57.7358 -117.4787 47.4598
v  -57.7358 -117.4787 51.4751
v  -59.8069 -117.4787 51.4751
v  -59.8319 -116.7490 47.4512
v  -59.8319 -117.0353 57.2255
v  -59.4824 -117.0353 57.2255
v  -59.4824 -116.7490 47.4512
v  -59.8319 -117.4112 47.4512
v  -59.4824 -117.4112 47.4512
v  -59.4824 -117.4112 57.2255
v  -59.8319 -117.4112 57.2255
v  -59.6282 -116.7904 58.7463
v  -59.6860 -116.7904 58.7463
v  -59.6860 -116.8068 58.7463
v  -59.6282 -116.8068 58.7463
v  -59.2432 -116.7490 47.4512
v  -59.2432 -117.0353 57.2255
v  -58.8937 -117.0353 57.2255
v  -58.8937 -116.7490 47.4512
v  -59.2432 -117.4112 47.4512
v  -58.8937 -117.4112 47.4512
v  -58.8937 -117.4112 57.2255
v  -59.2432 -117.4112 57.2255
v  -59.0396 -116.7904 58.7463
v  -59.0973 -116.7904 58.7463
v  -59.0973 -116.8068 58.7463
v  -59.0396 -116.8068 58.7463
v  -58.6542 -116.7490 47.4512
v  -58.6542 -117.0353 57.2255
v  -58.3046 -117.0353 57.2255
v  -58.3046 -116.7490 47.4512
v  -58.6542 -117.4112 47.4512
v  -58.3046 -117.4112 47.4512
v  -58.3046 -117.4112 57.2255
v  -58.6542 -117.4112 57.2255
v  -58.4505 -116.7904 58.7463
v  -58.5083 -116.7904 58.7463
v  -58.5083 -116.8068 58.7463
v  -58.4505 -116.8068 58.7463
v  -58.0850 -116.7490 47.4512
v  -58.0850 -117.0353 57.2255
v  -57.7355 -117.0353 57.2255
v  -57.7355 -116.7490 47.4512
v  -58.0850 -117.4112 47.4512
v  -57.7355 -117.4112 47.4512
v  -57.7355 -117.4112 57.2255
v  -58.0850 -117.4112 57.2255
v  -57.8814 -116.7904 58.7463
v  -57.9391 -116.7904 58.7463
v  -57.9391 -116.8068 58.7463
v  -57.8814 -116.8068 58.7463
# 56 vertices

vn -0.5774 0.5774 -0.5774
vn -0.5774 0.5774 0.5774
vn 0.5774 0.5774 0.5774
vn 0.5774 0.5774 -0.5774
vn -0.5774 -0.5774 -0.5774
vn 0.5774 -0.5774 -0.5774
vn 0.5774 -0.5774 0.5774
vn -0.5774 -0.5774 0.5774
vn -0.5758 0.5865 -0.5696
vn -0.7391 0.6736 -0.0052
vn 0.7391 0.6736 -0.0052
vn 0.5758 0.5865 -0.5696
vn 0.6744 -0.7205 0.1616
vn -0.6744 -0.7205 0.1616
vn 0.5408 0.6326 0.5544
vn -0.5408 0.6326 0.5544
vn -0.5655 -0.4499 0.6912
vn 0.5655 -0.4499 0.6912
# 18 vertex normals

vt 0.4968 0.8024 0.0000
vt 0.5393 0.9354 0.0000
vt 0.4707 0.9573 0.0000
vt 0.4283 0.8244 0.0000
vt 0.5964 0.8198 0.0000
vt 0.6650 0.8417 0.0000
vt 0.6225 0.9746 0.0000
vt 0.5540 0.9527 0.0000
vt 0.5249 0.7803 0.0000
vt 0.5795 0.7334 0.0000
vt 0.5831 0.7376 0.0000
vt 0.5285 0.7845 0.0000
vt 0.3687 0.8298 0.0000
vt 0.4712 0.7351 0.0000
vt 0.4749 0.7391 0.0000
vt 0.3724 0.8338 0.0000
vt 0.5249 0.6866 0.0000
vt 0.5795 0.6397 0.0000
vt 0.5831 0.6438 0.0000
vt 0.5285 0.6907 0.0000
vt 0.5337 0.8271 0.0000
vt 0.6361 0.7324 0.0000
vt 0.6398 0.7364 0.0000
vt 0.5374 0.8311 0.0000
vt 0.9845 0.5716 0.0000
vt 0.9889 0.9114 0.0000
vt 0.9767 0.9116 0.0000
vt 0.9724 0.5718 0.0000
vt 0.8506 0.5716 0.0000
vt 0.8627 0.5718 0.0000
vt 0.8584 0.9114 0.0000
vt 0.8462 0.9113 0.0000
vt 0.5960 0.1138 0.0000
vt 0.6076 0.1173 0.0000
vt 0.6008 0.1393 0.0000
vt 0.5892 0.1357 0.0000
vt 0.0200 0.6227 0.0000
vt 0.2591 0.3815 0.0000
vt 0.2687 0.3904 0.0000
vt 0.0368 0.6384 0.0000
vt 0.5892 0.1553 0.0000
vt 0.5910 0.1543 0.0000
vt 0.5912 0.1548 0.0000
vt 0.5895 0.1558 0.0000
vt 0.5892 0.0859 0.0000
vt 0.6430 0.0859 0.0000
vt 0.6452 0.0987 0.0000
vt 0.5894 0.0868 0.0000
vt 0.9845 0.9650 0.0000
vt 0.9825 0.9650 0.0000
vt 0.8526 0.9682 0.0000
vt 0.8506 0.9682 0.0000
vt 0.2889 0.3367 0.0000
vt 0.2896 0.3373 0.0000
vt 0.9762 0.0200 0.0000
vt 0.9800 0.0427 0.0000
vt 0.8899 0.5716 0.0000
vt 0.8943 0.9114 0.0000
vt 0.8821 0.9116 0.0000
vt 0.8777 0.5718 0.0000
vt 0.7561 0.5716 0.0000
vt 0.7682 0.5718 0.0000
vt 0.7639 0.9114 0.0000
vt 0.7517 0.9113 0.0000
vt 0.5960 0.0200 0.0000
vt 0.6076 0.0236 0.0000
vt 0.6008 0.0456 0.0000
vt 0.5892 0.0420 0.0000
vt 0.0200 0.9395 0.0000
vt 0.2591 0.6982 0.0000
vt 0.2687 0.7072 0.0000
vt 0.0368 0.9552 0.0000
vt 0.3046 0.4721 0.0000
vt 0.3064 0.4711 0.0000
vt 0.3066 0.4716 0.0000
vt 0.3049 0.4726 0.0000
vt 0.3046 0.4963 0.0000
vt 0.3584 0.4963 0.0000
vt 0.3606 0.5092 0.0000
vt 0.3048 0.4973 0.0000
vt 0.8899 0.9650 0.0000
vt 0.8879 0.9650 0.0000
vt 0.7581 0.9682 0.0000
vt 0.7561 0.9682 0.0000
vt 0.2889 0.6535 0.0000
vt 0.2896 0.6541 0.0000
vt 0.6916 0.4305 0.0000
vt 0.6954 0.4532 0.0000
vt 0.9530 0.5716 0.0000
vt 0.9573 0.9114 0.0000
vt 0.9452 0.9116 0.0000
vt 0.9408 0.5718 0.0000
vt 0.7876 0.5716 0.0000
vt 0.7997 0.5718 0.0000
vt 0.7954 0.9114 0.0000
vt 0.7832 0.9113 0.0000
vt 0.3114 0.3367 0.0000
vt 0.3230 0.3403 0.0000
vt 0.3162 0.3623 0.0000
vt 0.3046 0.3587 0.0000
vt 0.3046 0.3060 0.0000
vt 0.5437 0.0648 0.0000
vt 0.5533 0.0737 0.0000
vt 0.3214 0.3217 0.0000
vt 0.3217 0.4721 0.0000
vt 0.3234 0.4711 0.0000
vt 0.3237 0.4716 0.0000
vt 0.3219 0.4726 0.0000
vt 0.5892 0.1796 0.0000
vt 0.6430 0.1796 0.0000
vt 0.6452 0.1925 0.0000
vt 0.5894 0.1806 0.0000
vt 0.9530 0.9650 0.0000
vt 0.9510 0.9650 0.0000
vt 0.7896 0.9682 0.0000
vt 0.7876 0.9682 0.0000
vt 0.5735 0.0200 0.0000
vt 0.5742 0.0206 0.0000
vt 0.9762 0.1138 0.0000
vt 0.9800 0.1364 0.0000
vt 0.9214 0.5716 0.0000
vt 0.9258 0.9114 0.0000
vt 0.9137 0.9116 0.0000
vt 0.9093 0.5718 0.0000
vt 0.8191 0.5716 0.0000
vt 0.8312 0.5718 0.0000
vt 0.8269 0.9114 0.0000
vt 0.8147 0.9113 0.0000
vt 0.3114 0.4305 0.0000
vt 0.3230 0.4341 0.0000
vt 0.3162 0.4561 0.0000
vt 0.3046 0.4525 0.0000
vt 0.0200 0.3060 0.0000
vt 0.2591 0.0648 0.0000
vt 0.2687 0.0737 0.0000
vt 0.0368 0.3217 0.0000
vt 0.6063 0.1553 0.0000
vt 0.6080 0.1543 0.0000
vt 0.6083 0.1548 0.0000
vt 0.6065 0.1558 0.0000
vt 0.3046 0.4026 0.0000
vt 0.3584 0.4026 0.0000
vt 0.3606 0.4155 0.0000
vt 0.3048 0.4035 0.0000
vt 0.9214 0.9650 0.0000
vt 0.9194 0.9650 0.0000
vt 0.8211 0.9682 0.0000
vt 0.8191 0.9682 0.0000
vt 0.2889 0.0200 0.0000
vt 0.2896 0.0206 0.0000
vt 0.6916 0.3367 0.0000
vt 0.6954 0.3594 0.0000
# 152 texture coords

o Tegaki_shuko
g Tegaki_shuko
usemtl wire_000000000
f 1/1/1 2/2/2 3/3/3 4/4/4 
f 5/5/5 6/6/6 7/7/7 8/8/8 
f 1/9/1 4/10/4 6/11/6 5/12/5 
f 4/13/4 3/14/3 7/15/7 6/16/6 
f 3/17/3 2/18/2 8/19/8 7/20/7 
f 2/21/2 1/22/1 5/23/5 8/24/8 
f 9/25/9 10/26/10 11/27/11 12/28/12 
f 13/29/5 14/30/6 15/31/13 16/32/14 
f 9/33/9 12/34/12 14/35/6 13/36/5 
f 12/37/12 11/38/11 15/39/13 14/40/6 
f 17/41/15 18/42/16 19/43/17 20/44/18 
f 18/45/16 10/46/10 16/47/14 19/48/17 
f 10/26/10 18/49/16 17/50/15 11/27/11 
f 15/31/13 20/51/18 19/52/17 16/32/14 
f 11/38/11 17/53/15 20/54/18 15/39/13 
f 10/46/10 9/55/9 13/56/5 16/47/14 
f 21/57/9 22/58/10 23/59/11 24/60/12 
f 25/61/5 26/62/6 27/63/13 28/64/14 
f 21/65/9 24/66/12 26/67/6 25/68/5 
f 24/69/12 23/70/11 27/71/13 26/72/6 
f 29/73/15 30/74/16 31/75/17 32/76/18 
f 30/77/16 22/78/10 28/79/14 31/80/17 
f 22/58/10 30/81/16 29/82/15 23/59/11 
f 27/63/13 32/83/18 31/84/17 28/64/14 
f 23/70/11 29/85/15 32/86/18 27/71/13 
f 22/78/10 21/87/9 25/88/5 28/79/14 
f 33/89/9 34/90/10 35/91/11 36/92/12 
f 37/93/5 38/94/6 39/95/13 40/96/14 
f 33/97/9 36/98/12 38/99/6 37/100/5 
f 36/101/12 35/102/11 39/103/13 38/104/6 
f 41/105/15 42/106/16 43/107/17 44/108/18 
f 42/109/16 34/110/10 40/111/14 43/112/17 
f 34/90/10 42/113/16 41/114/15 35/91/11 
f 39/95/13 44/115/18 43/116/17 40/96/14 
f 35/102/11 41/117/15 44/118/18 39/103/13 
f 34/110/10 33/119/9 37/120/5 40/111/14 
f 45/121/9 46/122/10 47/123/11 48/124/12 
f 49/125/5 50/126/6 51/127/13 52/128/14 
f 45/129/9 48/130/12 50/131/6 49/132/5 
f 48/133/12 47/134/11 51/135/13 50/136/6 
f 53/137/15 54/138/16 55/139/17 56/140/18 
f 54/141/16 46/142/10 52/143/14 55/144/17 
f 46/122/10 54/145/16 53/146/15 47/123/11 
f 51/127/13 56/147/18 55/148/17 52/128/14 
f 47/134/11 53/149/15 56/150/18 51/135/13 
f 46/142/10 45/151/9 49/152/5 52/143/14 
# 46 polygons

