# 3ds Max Wavefront OBJ Exporter v0.97b - (c)2007 guruware
# File Created: 19.05.2020 18:00:00

mtllib Viking_Axe.mtl

#
# object Torus001
#

#
# object Cylinder001
#

v  -81.0859 -161.6102 87.4680
v  -81.3935 -161.5559 87.4680
v  -81.3935 -161.5559 85.3895
v  -81.0859 -161.6102 85.3895
v  -81.6641 -161.3997 87.4680
v  -81.6641 -161.3997 85.3895
v  -81.8649 -161.1604 87.4680
v  -81.8649 -161.1604 85.3895
v  -81.9717 -160.8669 87.4680
v  -81.9717 -160.8669 85.3895
v  -81.9717 -160.5545 87.4680
v  -81.9717 -160.5545 85.3895
v  -81.8649 -160.2609 87.4680
v  -81.8649 -160.2609 85.3895
v  -81.6641 -160.0216 87.4680
v  -81.6641 -160.0216 85.3895
v  -81.3935 -159.8654 87.4680
v  -81.3935 -159.8654 85.3895
v  -81.0859 -159.8112 87.4680
v  -81.0859 -159.8112 85.3895
v  -81.3935 -161.5559 79.9782
v  -81.0859 -161.6102 79.9782
v  -81.6641 -161.3997 79.9782
v  -81.8649 -161.1604 79.9782
v  -81.9717 -160.8669 79.9782
v  -88.0305 -160.6789 88.1879
v  -89.8632 -160.6789 85.7346
v  -89.8632 -160.7424 85.7331
v  -88.0305 -160.7424 88.1879
v  -81.8649 -160.2609 79.9782
v  -81.9717 -160.5545 79.9782
v  -81.6641 -160.0216 79.9782
v  -81.3935 -159.8654 79.9782
v  -81.0859 -159.8112 79.9782
v  -81.3935 -161.5559 51.4877
v  -81.0859 -161.6102 51.4877
v  -81.6641 -161.3997 51.4877
v  -81.8649 -161.1604 51.4877
v  -81.9717 -160.8669 51.4877
v  -81.9717 -160.5545 51.4877
v  -81.8649 -160.2609 51.4877
v  -81.6641 -160.0216 51.4877
v  -81.3935 -159.8654 51.4877
v  -81.0859 -159.8112 51.4877
v  -88.0305 -160.6789 77.3247
v  -89.8632 -160.6789 79.9477
v  -91.2320 -160.6789 83.1643
v  -88.0305 -160.7424 77.3247
v  -91.2320 -160.7424 83.1647
v  -89.8632 -160.7424 79.9460
v  -80.7782 -161.5559 85.3895
v  -80.7782 -161.5559 87.4680
v  -80.5077 -161.3997 85.3895
v  -80.5077 -161.3997 87.4680
v  -80.3069 -161.1604 85.3895
v  -80.3069 -161.1604 87.4680
v  -80.2000 -160.8669 85.3895
v  -80.2000 -160.8669 87.4680
v  -80.2000 -160.5545 85.3895
v  -80.2000 -160.5545 87.4680
v  -80.3069 -160.2609 85.3895
v  -80.3069 -160.2609 87.4680
v  -80.5077 -160.0216 85.3895
v  -80.5077 -160.0216 87.4680
v  -80.7782 -159.8654 85.3895
v  -80.7782 -159.8654 87.4680
v  -80.7782 -161.5559 79.9782
v  -80.5077 -161.3997 79.9782
v  -80.3069 -161.1604 79.9782
v  -80.2000 -160.8669 79.9782
v  -74.1412 -160.6789 88.1879
v  -74.1412 -160.7424 88.1879
v  -72.3086 -160.7424 85.7331
v  -72.3086 -160.6789 85.7346
v  -80.2000 -160.5545 79.9782
v  -80.3069 -160.2609 79.9782
v  -80.5077 -160.0216 79.9782
v  -80.7782 -159.8654 79.9782
v  -80.7782 -161.5559 51.4877
v  -80.5077 -161.3997 51.4877
v  -80.3069 -161.1604 51.4877
v  -80.2000 -160.8669 51.4877
v  -80.2000 -160.5545 51.4877
v  -80.3069 -160.2609 51.4877
v  -80.5077 -160.0216 51.4877
v  -80.7782 -159.8654 51.4877
v  -70.9398 -160.6789 83.1643
v  -72.3086 -160.6789 79.9477
v  -74.1412 -160.6789 77.3247
v  -74.1412 -160.7424 77.3247
v  -72.3086 -160.7424 79.9460
v  -70.9398 -160.7424 83.1647
# 92 vertices

vn -0.1298 -0.7361 0.6644
vn -0.2539 -0.6976 0.6700
vn -0.3420 -0.9397 -0.0000
vn -0.1736 -0.9848 -0.0000
vn -0.4771 -0.5686 0.6701
vn -0.6428 -0.7660 -0.0000
vn -0.6428 -0.3711 0.6701
vn -0.8660 -0.5000 -0.0000
vn -0.7310 -0.1289 0.6701
vn -0.7563 -0.5948 0.2724
vn -0.7311 0.1289 0.6700
vn -0.7563 0.5948 0.2723
vn -0.6429 0.3712 0.6700
vn -0.8660 0.5000 -0.0000
vn -0.4772 0.5687 0.6700
vn -0.6428 0.7660 -0.0000
vn -0.2539 0.6976 0.6700
vn -0.3420 0.9397 -0.0000
vn -0.1298 0.7361 0.6644
vn -0.1736 0.9848 -0.0000
vn -0.7598 -0.5895 -0.2741
vn -0.2027 0.5827 0.7870
vn -0.6143 0.6856 0.3907
vn -0.6073 -0.6952 0.3845
vn -0.2029 -0.5827 0.7870
vn -0.7598 0.5895 -0.2741
vn -0.2539 -0.6976 -0.6700
vn -0.1298 -0.7361 -0.6644
vn -0.4771 -0.5686 -0.6701
vn -0.6428 -0.3711 -0.6701
vn -0.7310 -0.1289 -0.6701
vn -0.7311 0.1289 -0.6700
vn -0.6429 0.3712 -0.6700
vn -0.4772 0.5687 -0.6700
vn -0.2539 0.6976 -0.6700
vn -0.1298 0.7361 -0.6644
vn -0.2231 0.5819 -0.7820
vn -0.6342 0.6894 -0.3502
vn -0.7825 0.6218 0.0326
vn -0.2230 -0.5820 -0.7820
vn -0.7825 -0.6216 0.0357
vn -0.6411 -0.6796 -0.3567
vn 0.1298 -0.7361 0.6644
vn 0.1736 -0.9848 0.0000
vn 0.3420 -0.9397 0.0000
vn 0.2539 -0.6976 0.6700
vn 0.6428 -0.7660 0.0000
vn 0.4771 -0.5686 0.6701
vn 0.8660 -0.5000 0.0000
vn 0.6428 -0.3711 0.6701
vn 0.7563 -0.5948 0.2724
vn 0.7310 -0.1289 0.6701
vn 0.7563 0.5948 0.2723
vn 0.7311 0.1289 0.6700
vn 0.8660 0.5000 0.0000
vn 0.6429 0.3712 0.6700
vn 0.6428 0.7660 0.0000
vn 0.4772 0.5687 0.6700
vn 0.3420 0.9397 0.0000
vn 0.2539 0.6976 0.6700
vn 0.1736 0.9848 0.0000
vn 0.1298 0.7361 0.6644
vn 0.7598 -0.5895 -0.2741
vn 0.2027 0.5827 0.7870
vn 0.2029 -0.5827 0.7870
vn 0.6073 -0.6952 0.3845
vn 0.6143 0.6856 0.3907
vn 0.7598 0.5895 -0.2741
vn 0.1298 -0.7361 -0.6644
vn 0.2539 -0.6976 -0.6700
vn 0.4771 -0.5686 -0.6701
vn 0.6428 -0.3711 -0.6701
vn 0.7310 -0.1289 -0.6701
vn 0.7311 0.1289 -0.6700
vn 0.6429 0.3712 -0.6700
vn 0.4772 0.5687 -0.6700
vn 0.2539 0.6976 -0.6700
vn 0.1298 0.7361 -0.6644
vn 0.7825 0.6218 0.0326
vn 0.6342 0.6894 -0.3502
vn 0.2231 0.5819 -0.7820
vn 0.2230 -0.5820 -0.7820
vn 0.6411 -0.6796 -0.3567
vn 0.7825 -0.6216 0.0357
# 84 vertex normals

vt 0.9731 0.3034 -0.5002
vt 0.9617 0.2994 -0.5002
vt 0.9532 0.2581 -0.5002
vt 0.9573 0.2550 -0.5002
vt 0.9525 0.2960 -0.5002
vt 0.9496 0.2607 -0.5002
vt 0.9447 0.2937 -0.5002
vt 0.9463 0.2627 -0.5002
vt 0.9405 0.2939 0.5002
vt 0.9436 0.2642 -0.5002
vt 0.8271 0.2939 0.5002
vt 0.8740 0.3058 -0.5002
vt 0.7944 0.4039 -0.5002
vt 0.7790 0.3967 -0.5002
vt 0.8776 0.3268 -0.5002
vt 0.8043 0.4102 -0.5002
vt 0.8843 0.3433 -0.5002
vt 0.8132 0.4173 -0.5002
vt 0.8929 0.3575 -0.5002
vt 0.8212 0.4251 -0.5002
vt 0.9024 0.3702 -0.5002
vt 0.8284 0.4335 -0.5002
vt 0.8856 0.2411 -0.5002
vt 0.8847 0.2364 -0.5002
vt 0.8867 0.2457 -0.5002
vt 0.8878 0.2501 -0.5002
vt 0.8889 0.2542 -0.5002
vt 0.2744 0.2845 -0.5000
vt 0.2890 0.3875 -0.5000
vt 0.3062 0.4046 -0.5000
vt 0.3052 0.3022 -0.5000
vt 0.7188 0.4963 -0.5002
vt 0.7169 0.4929 -0.5002
vt 0.7205 0.5000 -0.5002
vt 0.7222 0.5040 -0.5002
vt 0.7236 0.5080 -0.5002
vt 0.5960 0.4023 -0.5002
vt 0.5916 0.3991 -0.5002
vt 0.5996 0.4060 -0.5002
vt 0.6020 0.4103 -0.5002
vt 0.6025 0.4153 -0.5002
vt 0.6006 0.4193 -0.5002
vt 0.6019 0.4173 -0.5002
vt 0.7182 0.4909 -0.5002
vt 0.5994 0.4220 -0.5002
vt 0.5972 0.4243 -0.5002
vt 0.5944 0.4262 -0.5002
vt 0.5908 0.4280 -0.5002
vt 0.4718 0.0200 0.5000
vt 0.4718 0.9800 0.5000
vt 0.2640 0.7683 -0.5000
vt 0.2736 0.5973 -0.5000
vt 0.2524 0.4908 -0.5000
vt 0.3215 0.7329 -0.5000
vt 0.2900 0.7215 -0.5000
vt 0.3186 0.2834 -0.5000
vt 0.2909 0.4884 -0.5000
vt 0.2981 0.6077 -0.5000
vt 0.9732 0.7215 -0.4998
vt 0.9574 0.7699 -0.4998
vt 0.9533 0.7668 -0.4998
vt 0.9618 0.7255 -0.4998
vt 0.9496 0.7642 -0.4998
vt 0.9526 0.7289 -0.4998
vt 0.9464 0.7622 -0.4998
vt 0.9448 0.7313 -0.4998
vt 0.9437 0.7607 -0.4998
vt 0.9406 0.7310 0.4998
vt 0.8273 0.7310 0.4998
vt 0.7792 0.6283 -0.4998
vt 0.7946 0.6211 -0.4998
vt 0.8742 0.7191 -0.4998
vt 0.8045 0.6148 -0.4998
vt 0.8777 0.6982 -0.4998
vt 0.8133 0.6077 -0.4998
vt 0.8845 0.6817 -0.4998
vt 0.8214 0.5999 -0.4998
vt 0.8930 0.6675 -0.4998
vt 0.8285 0.5915 -0.4998
vt 0.9026 0.6547 -0.4998
vt 0.8847 0.7886 -0.4998
vt 0.8857 0.7839 -0.4998
vt 0.8867 0.7793 -0.4998
vt 0.8878 0.7749 -0.4998
vt 0.8890 0.7707 -0.4998
vt 0.2173 0.2845 -0.5000
vt 0.1865 0.3022 -0.5000
vt 0.1855 0.4046 -0.5000
vt 0.2028 0.3875 -0.5000
vt 0.7171 0.5322 -0.4998
vt 0.7189 0.5288 -0.4998
vt 0.7207 0.5251 -0.4998
vt 0.7223 0.5211 -0.4998
vt 0.7238 0.5171 -0.4998
vt 0.5916 0.6261 -0.4998
vt 0.5960 0.6229 -0.4998
vt 0.5996 0.6192 -0.4998
vt 0.6020 0.6149 -0.4998
vt 0.6025 0.6099 -0.4998
vt 0.7183 0.5342 -0.4998
vt 0.6019 0.6079 -0.4998
vt 0.6006 0.6058 -0.4998
vt 0.5994 0.6031 -0.4998
vt 0.5972 0.6009 -0.4998
vt 0.5944 0.5990 -0.4998
vt 0.5908 0.5972 -0.4998
vt 0.0200 0.0200 0.5000
vt 0.2394 0.4908 -0.5000
vt 0.2181 0.5973 -0.5000
vt 0.2278 0.7683 -0.5000
vt 0.0200 0.9800 0.5000
vt 0.2018 0.7215 -0.5000
vt 0.1703 0.7329 -0.5000
vt 0.1937 0.6077 -0.5000
vt 0.2008 0.4884 -0.5000
vt 0.1731 0.2834 -0.5000
# 116 texture coords

o Cylinder001
g Cylinder001
usemtl wire_228184153
f 1/1/1 2/2/2 3/3/3 4/4/4 
f 2/2/2 5/5/5 6/6/6 3/3/3 
f 5/5/5 7/7/7 8/8/8 6/6/6 
f 7/7/7 9/9/9 10/10/10 8/8/8 
f 9/11/9 11/12/11 12/13/12 10/14/10 
f 11/12/11 13/15/13 14/16/14 12/13/12 
f 13/15/13 15/17/15 16/18/16 14/16/14 
f 15/17/15 17/19/17 18/20/18 16/18/16 
f 17/19/17 19/21/19 20/22/20 18/20/18 
f 3/3/3 21/23/3 22/24/4 4/4/4 
f 6/6/6 23/25/6 21/23/3 3/3/3 
f 8/8/8 24/26/8 23/25/6 6/6/6 
f 10/10/10 25/27/21 24/26/8 8/8/8 
f 26/28/22 27/29/23 28/30/24 29/31/25 
f 14/16/14 30/32/14 31/33/26 12/13/12 
f 16/18/16 32/34/16 30/32/14 14/16/14 
f 18/20/18 33/35/18 32/34/16 16/18/16 
f 20/22/20 34/36/20 33/35/18 18/20/18 
f 21/23/3 35/37/27 36/38/28 22/24/4 
f 23/25/6 37/39/29 35/37/27 21/23/3 
f 24/26/8 38/40/30 37/39/29 23/25/6 
f 25/27/21 39/41/31 38/40/30 24/26/8 
f 31/33/26 40/42/32 39/43/31 25/44/21 
f 30/32/14 41/45/33 40/42/32 31/33/26 
f 32/34/16 42/46/34 41/45/33 30/32/14 
f 33/35/18 43/47/35 42/46/34 32/34/16 
f 34/36/20 44/48/36 43/47/35 33/35/18 
f 12/49/12 31/50/26 45/51/37 46/52/38 47/53/39 27/29/23 26/28/22 
f 31/50/26 25/54/21 48/55/40 45/51/37 
f 25/54/21 10/56/10 29/31/25 28/30/24 49/57/41 50/58/42 48/55/40 
f 10/56/10 12/49/12 26/28/22 29/31/25 
f 47/53/39 46/52/38 50/58/42 49/57/41 
f 27/29/23 47/53/39 49/57/41 28/30/24 
f 46/52/38 45/51/37 48/55/40 50/58/42 
f 19/21/19 17/19/17 2/2/2 1/1/1 
f 17/19/17 15/17/15 5/5/5 2/2/2 
f 7/7/7 5/5/5 15/17/15 13/15/13 
f 9/9/9 7/7/7 13/15/13 11/12/11 
f 43/47/35 44/48/36 36/38/28 35/37/27 
f 35/37/27 37/39/29 42/46/34 43/47/35 
f 41/45/33 42/46/34 37/39/29 38/40/30 
f 38/40/30 39/41/31 40/42/32 41/45/33 
f 1/59/43 4/60/44 51/61/45 52/62/46 
f 52/62/46 51/61/45 53/63/47 54/64/48 
f 54/64/48 53/63/47 55/65/49 56/66/50 
f 56/66/50 55/65/49 57/67/51 58/68/52 
f 58/69/52 57/70/51 59/71/53 60/72/54 
f 60/72/54 59/71/53 61/73/55 62/74/56 
f 62/74/56 61/73/55 63/75/57 64/76/58 
f 64/76/58 63/75/57 65/77/59 66/78/60 
f 66/78/60 65/77/59 20/79/61 19/80/62 
f 51/61/45 4/60/44 22/81/44 67/82/45 
f 53/63/47 51/61/45 67/82/45 68/83/47 
f 55/65/49 53/63/47 68/83/47 69/84/49 
f 57/67/51 55/65/49 69/84/49 70/85/63 
f 71/86/64 72/87/65 73/88/66 74/89/67 
f 61/73/55 59/71/53 75/90/68 76/91/55 
f 63/75/57 61/73/55 76/91/55 77/92/57 
f 65/77/59 63/75/57 77/92/57 78/93/59 
f 20/79/61 65/77/59 78/93/59 34/94/61 
f 67/82/45 22/81/44 36/95/69 79/96/70 
f 68/83/47 67/82/45 79/96/70 80/97/71 
f 69/84/49 68/83/47 80/97/71 81/98/72 
f 70/85/63 69/84/49 81/98/72 82/99/73 
f 75/90/68 70/100/63 82/101/73 83/102/74 
f 76/91/55 75/90/68 83/102/74 84/103/75 
f 77/92/57 76/91/55 84/103/75 85/104/76 
f 78/93/59 77/92/57 85/104/76 86/105/77 
f 34/94/61 78/93/59 86/105/77 44/106/78 
f 59/107/53 71/86/64 74/89/67 87/108/79 88/109/80 89/110/81 75/111/68 
f 75/111/68 89/110/81 90/112/82 70/113/63 
f 70/113/63 90/112/82 91/114/83 92/115/84 73/88/66 72/87/65 57/116/51 
f 57/116/51 72/87/65 71/86/64 59/107/53 
f 87/108/79 92/115/84 91/114/83 88/109/80 
f 74/89/67 73/88/66 92/115/84 87/108/79 
f 88/109/80 91/114/83 90/112/82 89/110/81 
f 19/80/62 1/59/43 52/62/46 66/78/60 
f 66/78/60 52/62/46 54/64/48 64/76/58 
f 56/66/50 62/74/56 64/76/58 54/64/48 
f 58/68/52 60/72/54 62/74/56 56/66/50 
f 86/105/77 79/96/70 36/95/69 44/106/78 
f 79/96/70 86/105/77 85/104/76 80/97/71 
f 84/103/75 81/98/72 80/97/71 85/104/76 
f 81/98/72 84/103/75 83/102/74 82/99/73 
# 84 polygons

